<svg width="470" height="470" viewBox="0 0 470 470" fill="none" xmlns="http://www.w3.org/2000/svg">
<path d="M469.991 245.823C469.991 208.066 460.385 172.594 443.54 141.771C515.342 -23.3682 366.603 0.819763 358.322 2.46641C326.81 8.73258 297.657 18.7927 270.765 31.5453C266.8 31.3184 262.81 31.1938 258.79 31.1938C158.43 31.1938 74.4235 102.329 52.923 197.69C105.819 137.385 142.838 113.052 165.006 103.315C161.468 106.528 158.004 109.777 154.596 113.05C153.462 114.138 152.369 115.242 151.251 116.337C149.004 118.533 146.762 120.731 144.572 122.95C143.269 124.269 142.001 125.6 140.718 126.929C138.776 128.938 136.838 130.945 134.942 132.966C133.595 134.401 132.281 135.841 130.959 137.278C129.187 139.205 127.427 141.134 125.699 143.07C124.357 144.574 123.037 146.079 121.718 147.587C120.08 149.461 118.458 151.335 116.857 153.213C115.53 154.77 114.214 156.328 112.914 157.888C111.396 159.708 109.898 161.528 108.416 163.348C107.104 164.959 105.797 166.568 104.514 168.177C103.126 169.917 101.768 171.655 100.413 173.391C99.0989 175.073 97.7852 176.753 96.502 178.433C95.2802 180.033 94.0934 181.626 92.8978 183.222C91.549 185.024 90.1892 186.827 88.8754 188.62C87.936 189.904 87.0339 191.175 86.112 192.454C77.7671 204.025 70.1426 215.374 63.2561 226.275C63.2386 226.302 63.2211 226.328 63.2058 226.355C61.3927 229.226 59.6431 232.054 57.9286 234.858C57.8367 235.009 57.7403 235.162 57.6483 235.316C55.9316 238.131 54.274 240.897 52.658 243.634C52.6011 243.729 52.542 243.827 52.485 243.923C48.1407 251.291 44.1117 258.393 40.4834 265.076C21.4617 300.107 12.2015 324.582 11.8008 326.035C-48.2665 544.265 139.205 452.108 165.365 438.352C193.533 452.493 225.244 460.453 258.79 460.453C350.625 460.453 428.76 400.882 457.843 317.693H346.87C330.45 345.884 298.837 364.978 262.519 364.978C209.308 364.978 166.173 324.008 166.173 273.467H468.261C469.407 264.415 470 255.189 470 245.823H469.991ZM430.538 34.6161C448.725 47.0906 463.313 66.6813 438.261 132.656C414.233 93.3881 378.084 62.5847 335.118 45.6531C354.663 36.0603 403.066 15.7709 430.538 34.6161ZM44.0154 437.912C29.2022 422.473 26.5834 384.872 59.2709 316.353C75.768 364.553 108.688 404.941 151.237 430.573C130.076 442.409 73.8979 469.058 44.0154 437.912ZM165.698 214.768C167.386 165.647 209.454 126.317 261.142 126.317C312.827 126.317 354.897 165.647 356.586 214.768H165.698Z" fill="#1EBBEE"/>
</svg>
