<svg width="556" height="547" viewBox="0 0 556 547" fill="none" xmlns="http://www.w3.org/2000/svg">
<path d="M199.915 197.024C89.7734 131.86 89.7734 131.86 89.7734 131.86C147.107 29.8986 147.107 29.8986 147.107 29.8986C162.949 1.53327 221.792 0.766637 242.161 25.2988C270.073 72.8299 270.073 72.8299 270.073 72.8299L199.915 197.024Z" fill="black"/>
<path d="M110.896 352.65C52.0531 352.65 52.0531 352.65 52.0531 352.65C29.4213 350.158 -8.29831 302.819 14.3334 259.888C39.9828 216.19 39.9828 216.19 39.9828 216.19C0 192.424 0 192.424 0 192.424C126.738 192.424 126.738 192.424 126.738 192.424C190.861 304.352 190.861 304.352 190.861 304.352C150.878 282.12 150.878 282.12 150.878 282.12L110.896 352.65Z" fill="black"/>
<path d="M262.526 368.749C262.526 499.843 262.526 499.843 262.526 499.843C121.455 499.843 121.455 499.843 121.455 499.843C113.156 500.609 107.121 492.177 102.595 485.277C36.2085 365.683 36.9629 366.449 33.9453 362.616C37.5287 365.683 41.4892 368.749 52.8051 368.749H262.526Z" fill="black"/>
<path d="M506.949 368.749C521.282 367.216 523.545 363.383 527.317 361.083C456.404 488.343 456.404 488.343 456.404 488.343C453.387 494.476 447.352 499.843 438.299 499.843C359.842 499.843 359.842 499.843 359.842 499.843C359.842 546.607 359.842 546.607 359.842 546.607C295.719 435.446 295.719 435.446 295.719 435.446C359.842 323.518 359.842 323.518 359.842 323.518C359.842 368.749 359.842 368.749 359.842 368.749H506.949Z" fill="black"/>
<path d="M380.211 229.989C491.107 165.592 491.107 165.592 491.107 165.592C549.195 266.021 549.195 266.021 549.195 266.021C570.318 307.419 534.107 347.283 509.966 351.883C450.369 351.883 450.369 351.883 450.369 351.883L380.211 229.989Z" fill="black"/>
<path d="M258.002 15.3326C253.476 9.19956 244.423 1.53326 236.125 0C384.74 0 384.74 0 384.74 0C393.039 0 400.582 3.06652 404.354 9.96619C442.828 78.9629 442.828 78.9629 442.828 78.9629C481.302 56.7306 481.302 56.7306 481.302 56.7306C418.688 167.125 418.688 167.125 418.688 167.125C293.459 167.125 293.459 167.125 293.459 167.125C331.178 144.126 331.178 144.126 331.178 144.126L258.002 15.3326Z" fill="black"/>
</svg>
